<svg width="381" height="300" viewBox="0 0 381 300" fill="none" xmlns="http://www.w3.org/2000/svg">
<g style="mix-blend-mode:plus-lighter">
<path fill-rule="evenodd" clip-rule="evenodd" d="M74.912 157.895C72.0501 147.432 69.993 136.766 68.7585 125.99C66.5265 105.952 66.9496 85.7071 70.017 65.7801C70.2311 64.3224 70.8086 62.942 71.6962 61.7661C72.5838 60.5902 73.7531 59.6566 75.0963 59.0512C76.4395 58.4458 77.9135 58.1881 79.3824 58.3019C80.8513 58.4157 82.268 58.8973 83.5019 59.7024C97.9189 67.7502 111.434 77.3169 123.816 88.2393C129.851 93.5816 135.58 99.2587 140.978 105.244C143.226 92.5972 146.508 80.1565 150.791 68.0471C158.288 47.0763 168.516 27.1848 181.211 8.88651C181.546 6.36348 182.812 4.05669 184.76 2.41853C185.497 1.65365 186.381 1.04528 187.358 0.629729C188.336 0.214181 189.388 0 190.45 0C191.512 0 192.564 0.214181 193.541 0.629729C194.519 1.04528 195.403 1.65365 196.14 2.41853C198.086 4.05778 199.35 6.36436 199.684 8.88651C212.378 27.1847 222.606 47.0762 230.103 68.0471C234.389 80.1563 237.673 92.597 239.923 105.244C245.317 99.2573 251.044 93.5801 257.079 88.2393C269.618 77.1817 283.316 67.5122 297.934 59.3992C298.939 58.8392 300.045 58.4829 301.188 58.3505C302.331 58.2182 303.488 58.3125 304.594 58.628C305.701 58.9436 306.734 59.4741 307.635 60.1894C308.536 60.9047 309.287 61.7906 309.846 62.7964C310.367 63.7213 310.711 64.7352 310.86 65.7861L310.878 65.7801C313.948 85.7069 314.371 105.952 312.136 125.99C310.902 136.766 308.844 147.432 305.983 157.895C312.489 155.307 319.128 153.066 325.872 151.181C340.819 147.04 356.178 144.558 371.67 143.781C372.819 143.722 373.968 143.89 375.052 144.275C376.136 144.661 377.134 145.256 377.988 146.028C378.842 146.799 379.535 147.731 380.029 148.77C380.523 149.809 380.807 150.936 380.865 152.085C380.921 153.13 380.787 154.176 380.469 155.173L380.492 155.179C366.636 201.821 336.73 242.059 296.064 268.774C264.524 288.924 227.878 299.63 190.45 299.63C153.023 299.63 116.377 288.924 84.8362 268.774C44.1687 242.06 14.2619 201.822 0.408248 155.179C0.0605142 154.079 -0.0669641 152.922 0.03306 151.772C0.133084 150.623 0.458643 149.504 0.991176 148.481C1.52371 147.458 2.25278 146.549 3.13664 145.808C4.02049 145.066 5.0418 144.506 6.14224 144.16C7.33987 143.776 8.60682 143.659 9.85451 143.816C25.1349 144.628 40.2818 147.098 55.0289 151.181C61.7706 153.066 68.4076 155.307 74.912 157.895ZM86.1938 123.997C88.0329 140.095 91.8739 155.9 97.6277 171.047C98.2799 172.713 98.4075 174.538 97.9933 176.278C97.5791 178.018 96.6429 179.59 95.3102 180.783C93.9776 181.976 92.312 182.734 90.5369 182.954C88.7617 183.174 86.9617 182.846 85.3781 182.014C74.2358 176.132 62.4969 171.457 50.3612 168.069C40.9169 165.44 31.2822 163.55 21.5445 162.417C35.3241 199.974 60.8386 232.091 94.3057 254.007C123.027 272.324 156.383 282.055 190.447 282.055C224.512 282.055 257.868 272.324 286.589 254.007C320.059 232.094 345.574 199.976 359.35 162.417C349.614 163.55 339.982 165.44 330.539 168.069C318.402 171.458 306.661 176.133 295.516 182.014C293.943 182.842 292.155 183.171 290.389 182.959C288.624 182.747 286.965 182.003 285.632 180.826C284.3 179.649 283.357 178.094 282.928 176.369C282.499 174.643 282.605 172.828 283.232 171.164C289.003 155.98 292.854 140.135 294.695 123.997C296.285 109.877 296.42 95.6322 295.097 81.4855C285.782 87.4015 276.949 94.0441 268.681 101.351C258.403 110.445 249.111 120.596 240.96 131.637L240.954 131.631C239.896 133.058 238.428 134.13 236.747 134.703C235.065 135.277 233.248 135.325 231.539 134.841C229.829 134.357 228.307 133.364 227.175 131.994C226.043 130.624 225.355 128.943 225.202 127.172C223.568 108.991 219.656 91.0866 213.559 73.8801C207.661 57.3263 199.907 41.4935 190.447 26.684C180.989 41.4936 173.237 57.3265 167.342 73.8801C161.275 90.9761 157.372 108.764 155.721 126.829C155.637 128.634 154.996 130.369 153.886 131.796C152.776 133.223 151.252 134.272 149.523 134.798C147.794 135.325 145.944 135.304 144.228 134.738C142.511 134.172 141.012 133.088 139.935 131.637C131.781 120.598 122.49 110.447 112.214 101.351C103.946 94.0427 95.1133 87.4 85.7976 81.4855C84.4751 95.6321 84.6079 109.877 86.1938 123.997Z" fill="#8FAB90"/>
<path fill-rule="evenodd" clip-rule="evenodd" d="M186.42 267.527C179.928 260.004 162.97 237.656 162.97 209.445C163.376 188.909 171.874 169.364 186.618 155.063C187.575 154.048 188.896 153.455 190.29 153.414C191.684 153.372 193.038 153.886 194.054 154.842L194.281 155.063C209.022 169.366 217.521 188.91 217.929 209.445C217.929 237.732 200.872 260.132 194.421 267.592C193.509 268.645 192.216 269.293 190.826 269.393C189.436 269.494 188.063 269.039 187.009 268.127C186.796 267.944 186.599 267.743 186.42 267.527ZM173.512 209.445C174.153 226.276 180.078 242.477 190.446 255.75C200.815 242.477 206.741 226.276 207.381 209.445C207.1 193.58 201.084 178.352 190.446 166.578C179.807 178.351 173.791 193.579 173.512 209.445Z" fill="#8FAB90"/>
</g>
</svg>
